<mxfile host="app.diagrams.net" agent="Mozilla/5.0 (X11; Ubuntu; Linux x86_64; rv:133.0) Gecko/20100101 Firefox/133.0" version="26.0.14">
  <diagram id="prtHgNgQTEPvFCAcTncT" name="Page-1">
    <mxGraphModel dx="1506" dy="995" grid="1" gridSize="10" guides="1" tooltips="1" connect="1" arrows="1" fold="1" page="1" pageScale="1" pageWidth="827" pageHeight="1169" math="0" shadow="0">
      <root>
        <mxCell id="0" />
        <mxCell id="1" parent="0" />
        <mxCell id="YW9nds_jxnBKE9A0uvM--13" style="edgeStyle=orthogonalEdgeStyle;rounded=0;orthogonalLoop=1;jettySize=auto;html=1;exitX=0.5;exitY=1;exitDx=0;exitDy=0;entryX=0.5;entryY=0;entryDx=0;entryDy=0;" edge="1" parent="1" source="YW9nds_jxnBKE9A0uvM--9" target="YW9nds_jxnBKE9A0uvM--11">
          <mxGeometry relative="1" as="geometry" />
        </mxCell>
        <mxCell id="YW9nds_jxnBKE9A0uvM--14" style="edgeStyle=orthogonalEdgeStyle;rounded=0;orthogonalLoop=1;jettySize=auto;html=1;exitX=0.5;exitY=1;exitDx=0;exitDy=0;entryX=0.5;entryY=0;entryDx=0;entryDy=0;" edge="1" parent="1" source="YW9nds_jxnBKE9A0uvM--9" target="YW9nds_jxnBKE9A0uvM--12">
          <mxGeometry relative="1" as="geometry" />
        </mxCell>
        <mxCell id="YW9nds_jxnBKE9A0uvM--15" style="edgeStyle=orthogonalEdgeStyle;rounded=0;orthogonalLoop=1;jettySize=auto;html=1;exitX=0.5;exitY=1;exitDx=0;exitDy=0;entryX=0.5;entryY=0;entryDx=0;entryDy=0;" edge="1" parent="1" source="YW9nds_jxnBKE9A0uvM--9" target="YW9nds_jxnBKE9A0uvM--10">
          <mxGeometry relative="1" as="geometry" />
        </mxCell>
        <mxCell id="YW9nds_jxnBKE9A0uvM--9" value="&lt;b&gt;Генеральный директор&lt;/b&gt;" style="rounded=0;whiteSpace=wrap;html=1;" vertex="1" parent="1">
          <mxGeometry x="320" y="120" width="120" height="60" as="geometry" />
        </mxCell>
        <mxCell id="YW9nds_jxnBKE9A0uvM--30" style="edgeStyle=orthogonalEdgeStyle;rounded=0;orthogonalLoop=1;jettySize=auto;html=1;exitX=0.5;exitY=1;exitDx=0;exitDy=0;entryX=0;entryY=0.5;entryDx=0;entryDy=0;" edge="1" parent="1" source="YW9nds_jxnBKE9A0uvM--10" target="YW9nds_jxnBKE9A0uvM--28">
          <mxGeometry relative="1" as="geometry" />
        </mxCell>
        <mxCell id="YW9nds_jxnBKE9A0uvM--31" style="edgeStyle=orthogonalEdgeStyle;rounded=0;orthogonalLoop=1;jettySize=auto;html=1;exitX=0.5;exitY=1;exitDx=0;exitDy=0;entryX=0;entryY=0.5;entryDx=0;entryDy=0;" edge="1" parent="1" source="YW9nds_jxnBKE9A0uvM--10" target="YW9nds_jxnBKE9A0uvM--27">
          <mxGeometry relative="1" as="geometry" />
        </mxCell>
        <mxCell id="YW9nds_jxnBKE9A0uvM--32" style="edgeStyle=orthogonalEdgeStyle;rounded=0;orthogonalLoop=1;jettySize=auto;html=1;exitX=0.5;exitY=1;exitDx=0;exitDy=0;entryX=0;entryY=0.5;entryDx=0;entryDy=0;" edge="1" parent="1" source="YW9nds_jxnBKE9A0uvM--10" target="YW9nds_jxnBKE9A0uvM--21">
          <mxGeometry relative="1" as="geometry" />
        </mxCell>
        <mxCell id="YW9nds_jxnBKE9A0uvM--33" style="edgeStyle=orthogonalEdgeStyle;rounded=0;orthogonalLoop=1;jettySize=auto;html=1;exitX=0.5;exitY=1;exitDx=0;exitDy=0;entryX=0;entryY=0.5;entryDx=0;entryDy=0;" edge="1" parent="1" source="YW9nds_jxnBKE9A0uvM--10" target="YW9nds_jxnBKE9A0uvM--29">
          <mxGeometry relative="1" as="geometry" />
        </mxCell>
        <mxCell id="YW9nds_jxnBKE9A0uvM--10" value="&lt;b&gt;Отдел работы в торговом зале&lt;/b&gt;" style="rounded=0;whiteSpace=wrap;html=1;" vertex="1" parent="1">
          <mxGeometry x="520" y="240" width="120" height="60" as="geometry" />
        </mxCell>
        <mxCell id="YW9nds_jxnBKE9A0uvM--22" style="edgeStyle=orthogonalEdgeStyle;rounded=0;orthogonalLoop=1;jettySize=auto;html=1;exitX=0.5;exitY=1;exitDx=0;exitDy=0;entryX=0;entryY=0.5;entryDx=0;entryDy=0;" edge="1" parent="1" source="YW9nds_jxnBKE9A0uvM--11" target="YW9nds_jxnBKE9A0uvM--16">
          <mxGeometry relative="1" as="geometry" />
        </mxCell>
        <mxCell id="YW9nds_jxnBKE9A0uvM--23" style="edgeStyle=orthogonalEdgeStyle;rounded=0;orthogonalLoop=1;jettySize=auto;html=1;exitX=0.5;exitY=1;exitDx=0;exitDy=0;entryX=0;entryY=0.5;entryDx=0;entryDy=0;" edge="1" parent="1" source="YW9nds_jxnBKE9A0uvM--11" target="YW9nds_jxnBKE9A0uvM--17">
          <mxGeometry relative="1" as="geometry" />
        </mxCell>
        <mxCell id="YW9nds_jxnBKE9A0uvM--24" style="edgeStyle=orthogonalEdgeStyle;rounded=0;orthogonalLoop=1;jettySize=auto;html=1;exitX=0.5;exitY=1;exitDx=0;exitDy=0;entryX=0;entryY=0.5;entryDx=0;entryDy=0;" edge="1" parent="1" source="YW9nds_jxnBKE9A0uvM--11" target="YW9nds_jxnBKE9A0uvM--18">
          <mxGeometry relative="1" as="geometry" />
        </mxCell>
        <mxCell id="YW9nds_jxnBKE9A0uvM--11" value="&lt;b&gt;Отдел администрации&lt;/b&gt;" style="rounded=0;whiteSpace=wrap;html=1;" vertex="1" parent="1">
          <mxGeometry x="120" y="240" width="120" height="60" as="geometry" />
        </mxCell>
        <mxCell id="YW9nds_jxnBKE9A0uvM--25" style="edgeStyle=orthogonalEdgeStyle;rounded=0;orthogonalLoop=1;jettySize=auto;html=1;exitX=0.5;exitY=1;exitDx=0;exitDy=0;entryX=0;entryY=0.5;entryDx=0;entryDy=0;" edge="1" parent="1" source="YW9nds_jxnBKE9A0uvM--12" target="YW9nds_jxnBKE9A0uvM--19">
          <mxGeometry relative="1" as="geometry" />
        </mxCell>
        <mxCell id="YW9nds_jxnBKE9A0uvM--26" style="edgeStyle=orthogonalEdgeStyle;rounded=0;orthogonalLoop=1;jettySize=auto;html=1;exitX=0.5;exitY=1;exitDx=0;exitDy=0;entryX=0;entryY=0.5;entryDx=0;entryDy=0;" edge="1" parent="1" source="YW9nds_jxnBKE9A0uvM--12" target="YW9nds_jxnBKE9A0uvM--20">
          <mxGeometry relative="1" as="geometry" />
        </mxCell>
        <mxCell id="YW9nds_jxnBKE9A0uvM--12" value="&lt;b&gt;Отдел хранения&lt;/b&gt;" style="rounded=0;whiteSpace=wrap;html=1;" vertex="1" parent="1">
          <mxGeometry x="320" y="240" width="120" height="60" as="geometry" />
        </mxCell>
        <mxCell id="YW9nds_jxnBKE9A0uvM--16" value="&lt;b&gt;Администратор&lt;/b&gt;" style="rounded=0;whiteSpace=wrap;html=1;" vertex="1" parent="1">
          <mxGeometry x="200" y="340" width="120" height="60" as="geometry" />
        </mxCell>
        <mxCell id="YW9nds_jxnBKE9A0uvM--17" value="&lt;b&gt;Бухгалтер&lt;/b&gt;" style="rounded=0;whiteSpace=wrap;html=1;" vertex="1" parent="1">
          <mxGeometry x="200" y="420" width="120" height="60" as="geometry" />
        </mxCell>
        <mxCell id="YW9nds_jxnBKE9A0uvM--18" value="&lt;b&gt;Менеджер по продажам&lt;br&gt;&lt;/b&gt;" style="rounded=0;whiteSpace=wrap;html=1;" vertex="1" parent="1">
          <mxGeometry x="200" y="500" width="120" height="60" as="geometry" />
        </mxCell>
        <mxCell id="YW9nds_jxnBKE9A0uvM--19" value="&lt;b&gt;Менеджер склада&lt;/b&gt;" style="rounded=0;whiteSpace=wrap;html=1;" vertex="1" parent="1">
          <mxGeometry x="400" y="340" width="120" height="60" as="geometry" />
        </mxCell>
        <mxCell id="YW9nds_jxnBKE9A0uvM--20" value="&lt;b&gt;Кладовщик&lt;/b&gt;" style="rounded=0;whiteSpace=wrap;html=1;" vertex="1" parent="1">
          <mxGeometry x="400" y="420" width="120" height="60" as="geometry" />
        </mxCell>
        <mxCell id="YW9nds_jxnBKE9A0uvM--21" value="&lt;b&gt;Мерчендайзер&lt;/b&gt;" style="rounded=0;whiteSpace=wrap;html=1;" vertex="1" parent="1">
          <mxGeometry x="600" y="500" width="120" height="60" as="geometry" />
        </mxCell>
        <mxCell id="YW9nds_jxnBKE9A0uvM--27" value="&lt;b&gt;Кассир&lt;/b&gt;" style="rounded=0;whiteSpace=wrap;html=1;" vertex="1" parent="1">
          <mxGeometry x="600" y="420" width="120" height="60" as="geometry" />
        </mxCell>
        <mxCell id="YW9nds_jxnBKE9A0uvM--28" value="&lt;b&gt;Продавец-консультант&lt;/b&gt;" style="rounded=0;whiteSpace=wrap;html=1;" vertex="1" parent="1">
          <mxGeometry x="600" y="340" width="120" height="60" as="geometry" />
        </mxCell>
        <mxCell id="YW9nds_jxnBKE9A0uvM--29" value="Уборщик" style="rounded=0;whiteSpace=wrap;html=1;fontStyle=1" vertex="1" parent="1">
          <mxGeometry x="600" y="580" width="120" height="60" as="geometry" />
        </mxCell>
      </root>
    </mxGraphModel>
  </diagram>
</mxfile>
